:FULLY-SPECIFIED
:FORCE-ALL-JOINTS-BE-3DOF
:DEGREES
306
root 9.13628 15.4598 -23.7347 27.5968 74.2534 35.3731
lfemur -13.5216 12.0227 -19.498
ltibia 55.0621 -0 0
lfoot -15.1787 -33.4735 -0.312005
ltoes 57.3636 -0 0
rfemur -39.1022 -5.91587 26.5539
rtibia 47.9383 -0 0
rfoot -0.793668 -17.4455 0.00627947
rtoes 46.748 -0 0
lowerback 7.17392 -4.58043 -7.93409
upperback 4.63517 -6.36868 -4.14435
thorax 1.23025 -3.22194 0.461415
lowerneck -2.56062 -11.9524 -6.0621
upperneck 2.83915 -16.12 8.83079
head 2.76586 -7.94036 3.25822
lclavicle -5.95928e-14 -2.57474e-15 0
lhumerus -39.4483 -41.0385 98.5666
lradius 59.5007 -0 0
lwrist 19.0465 0 0
lhand 20.0931 15.0733 0.0152643
lfingers 7.12502 0 0
lthumb 44.103 38.0612 0.0152125
rclavicle -5.95928e-14 -2.57474e-15 0
rhumerus -70.4219 37.2987 -103.31
rradius 77.0495 -0 0
rwrist 13.6715 0 0
rhand -25.4266 -12.5285 -0.157022
rfingers 7.12502 0 0
rthumb 0.585177 -41.9745 -0.187782
307
root 9.09677 15.4778 -23.7053 23.9554 72.2962 30.782
lfemur -12.7372 11.4799 -18.5703
ltibia 53.0631 -0 0
lfoot -14.4989 -32.1876 -0.288154
ltoes 54.8182 -0 0
rfemur -37.0642 -5.55978 25.4887
rtibia 45.4261 -0 0
rfoot -0.903171 -17.1702 -0.0250314
rtoes 46.1509 -0 0
lowerback 6.80545 -4.40128 -7.63668
upperback 4.44825 -6.11283 -3.96892
thorax 1.23088 -3.09377 0.458728
lowerneck -2.3934 -11.4225 -5.85605
upperneck 2.81072 -15.4227 8.42752
head 2.6758 -7.58848 3.12291
lclavicle -5.64762e-14 -2.55581e-15 0
lhumerus -37.1406 -41.1824 94.7077
lradius 57.1725 -0 0
lwrist 18.1795 0 0
lhand 19.2234 14.4417 0.0125576
lfingers 7.12502 0 0
lthumb 42.2662 36.4494 0.0128765
rclavicle -5.64762e-14 -2.55581e-15 0
rhumerus -68.3554 37.9004 -100.82
rradius 74.8209 -0 0
rwrist 13.2855 0 0
rhand -24.4582 -12.0914 -0.139212
rfingers 7.12502 0 0
rthumb 0.405447 -40.3297 -0.167959
308
root 9.05727 15.4958 -23.676 21.1383 70.3015 27.1849
lfemur -12.0321 11.001 -17.7309
ltibia 51.2011 -0 0
lfoot -13.8926 -30.9893 -0.264334
ltoes 52.4209 -0 0
rfemur -35.2253 -5.25273 24.5251
rtibia 43.1206 -0 0
rfoot -0.997053 -16.9075 -0.0536539
rtoes 45.5571 -0 0
lowerback 6.4754 -4.23712 -7.36894
upperback 4.28127 -5.87881 -3.81143
thorax 1.23155 -2.97663 0.455782
lowerneck -2.24584 -10.9455 -5.66426
upperneck 2.77635 -14.793 8.06943
head 2.59202 -7.27213 3.00158
lclavicle -5.33595e-14 -2.53688e-15 0
lhumerus -35.0939 -41.2105 90.8956
lradius 55.0006 -0 0
lwrist 17.3989 0 0
lhand 18.4322 13.8691 0.0104194
lfingers 7.12502 0 0
lthumb 40.5757 34.9787 0.0108277
rclavicle -5.33595e-14 -2.53688e-15 0
rhumerus -66.322 38.4667 -98.2556
rradius 72.6992 -0 0
rwrist 12.9015 0 0
rhand -23.5464 -11.7071 -0.123213
rfingers 7.12502 0 0
rthumb 0.2793 -38.8295 -0.148433
309
root 9.01776 15.5138 -23.6466 19.0457 68.4429 24.5062
lfemur -11.4393 10.6196 -17.0222
ltibia 49.605 -0 0
lfoot -13.399 -29.9466 -0.24248
ltoes 50.3292 -0 0
rfemur -33.6974 -5.01926 23.7221
rtibia 41.1581 -0 0
rfoot -1.07217 -16.671 -0.0776777
rtoes 44.9974 -0 0
lowerback 6.20229 -4.09566 -7.14709
upperback 4.14449 -5.67778 -3.68113
thorax 1.23327 -2.87609 0.452741
lowerneck -2.12536 -10.5473 -5.49502
upperneck 2.73585 -14.266 7.77742
head 2.51831 -7.00832 2.90115
lclavicle -5.02428e-14 -2.51794e-15 0
lhumerus -33.4141 -41.1498 87.462
lradius 53.1364 -0 0
lwrist 16.747 0 0
lhand 17.7613 13.3849 0.00910055
lfingers 7.12502 0 0
lthumb 39.1359 33.7373 0.00927537
rclavicle -5.02428e-14 -2.51794e-15 0
rhumerus -64.4391 38.9832 -95.7989
rradius 70.8637 -0 0
rwrist 12.5239 0 0
rhand -22.7333 -11.4057 -0.109984
rfingers 7.12502 0 0
rthumb 0.22207 -37.5759 -0.130321
310
root 8.97825 15.5319 -23.6172 17.5916 66.906 22.6639
lfemur -10.989 10.368 -16.4835
ltibia 48.4039 -0 0
lfoot -13.055 -29.125 -0.224353
ltoes 48.6961 -0 0
rfemur -32.5851 -4.88254 23.1359
rtibia 39.6662 -0 0
rfoot -1.12611 -16.4752 -0.0951947
rtoes 44.5058 -0 0
lowerback 6.00327 -3.98419 -6.98661
upperback 4.04767 -5.52024 -3.58674
thorax 1.23723 -2.79741 0.449823
lowerneck -2.03873 -10.2524 -5.35616
upperneck 2.6892 -13.8744 7.57108
head 2.45826 -6.81303 2.82812
lclavicle -4.71262e-14 -2.49901e-15 0
lhumerus -32.1942 -41.066 84.7756
lradius 51.7309 -0 0
lwrist 16.2638 0 0
lhand 17.2501 13.0169 0.00883651
lfingers 7.12502 0 0
lthumb 38.0476 32.8093 0.00841529
rclavicle -4.71262e-14 -2.49901e-15 0
rhumerus -62.8325 39.4478 -93.6795
rradius 69.508 -0 0
rwrist 12.1566 0 0
rhand -22.0589 -11.2163 -0.100263
rfingers 7.12502 0 0
rthumb 0.24842 -36.6676 -0.114535
311
root 8.93875 15.5499 -23.5879 16.7236 65.8742 21.6064
lfemur -10.7101 10.2781 -16.153
ltibia 47.724 -0 0
lfoot -12.897 -28.5876 -0.211529
ltoes 47.6674 -0 0
rfemur -31.9892 -4.86569 22.8216
rtibia 38.7653 -0 0
rfoot -1.1566 -16.3344 -0.104312
rtoes 44.1172 -0 0
lowerback 5.89513 -3.90972 -6.90279
upperback 4.0005 -5.4163 -3.53687
thorax 1.24473 -2.74564 0.447255
lowerneck -1.9926 -10.0846 -5.25518
upperneck 2.63613 -13.6507 7.46978
head 2.41534 -6.70193 2.78892
lclavicle -4.40095e-14 -2.48008e-15 0
lhumerus -31.523 -41.0478 83.2053
lradius 50.931 -0 0
lwrist 15.988 0 0
lhand 16.9369 12.7921 0.00985045
lfingers 7.12502 0 0
lthumb 37.4085 32.2766 0.0084278
rclavicle -4.40095e-14 -2.48008e-15 0
rhumerus -61.6301 39.8688 -92.1538
rradius 68.8276 -0 0
rwrist 11.8022 0 0
rhand -21.5608 -11.1684 -0.0946275
rfingers 7.12502 0 0
rthumb 0.374109 -36.202 -0.101793
312
root 8.89924 15.5679 -23.5585 16.4356 65.5136 21.3371
lfemur -10.6332 10.3838 -16.07
ltibia 47.6881 -0 0
lfoot -12.9637 -28.3966 -0.205421
ltoes 47.3826 -0 0
rfemur -32.0132 -4.9936 22.8365
rtibia 38.5743 -0 0
rfoot -1.16082 -16.262 -0.103167
rtoes 43.8649 -0 0
lowerback 5.8956 -3.87927 -6.91154
upperback 4.01315 -5.37619 -3.54051
thorax 1.25706 -2.72591 0.445203
lowerneck -1.99416 -10.0687 -5.19924
upperneck 2.57552 -13.628 7.49417
head 2.3929 -6.69134 2.79028
lclavicle -4.08928e-14 -2.46115e-15 0
lhumerus -31.4978 -41.1744 83.0886
lradius 50.8786 -0 0
lwrist 15.9599 0 0
lhand 16.8606 12.7381 0.0123585
lfingers 7.12502 0 0
lthumb 37.3153 32.2216 0.00947788
rclavicle -4.08928e-14 -2.46115e-15 0
rhumerus -60.9556 40.2561 -91.4718
rradius 69.007 -0 0
rwrist 11.4604 0 0
rhand -21.2753 -11.2932 -0.093581
rfingers 7.12502 0 0
rthumb 0.618285 -36.2769 -0.0926836
313
root 8.85973 15.5859 -23.5291 16.7864 65.9572 21.9423
lfemur -10.7932 10.7232 -16.2784
ltibia 48.4147 -0 0
lfoot -13.299 -28.615 -0.207332
ltoes 47.9772 -0 0
rfemur -32.7712 -5.29518 23.2442
rtibia 39.2177 -0 0
rfoot -1.13447 -16.2688 -0.0899411
rtoes 43.7773 -0 0
lowerback 6.02498 -3.9002 -7.03033
upperback 4.09707 -5.4107 -3.60775
thorax 1.27539 -2.74363 0.443686
lowerneck -2.05198 -10.2323 -5.1954
upperneck 2.50463 -13.8426 7.66798
head 2.39421 -6.79944 2.8397
lclavicle -3.77762e-14 -2.44222e-15 0
lhumerus -32.2393 -41.4724 84.7031
lradius 51.7099 -0 0
lwrist 16.224 0 0
lhand 17.0633 12.885 0.0165767
lfingers 7.12502 0 0
lthumb 37.8664 32.73 0.0117161
rclavicle -3.77762e-14 -2.44222e-15 0
rhumerus -60.9218 40.6051 -91.8365
rradius 70.203 -0 0
rwrist 11.1261 0 0
rhand -21.2379 -11.6265 -0.097668
rfingers 7.12502 0 0
rthumb 1.0063 -36.9948 -0.0877526
314
root 8.82022 15.604 -23.4997 17.9357 67.2841 23.6387
lfemur -11.2336 11.3415 -16.8303
ltibia 50.0147 -0 0
lfoot -13.9558 -29.3091 -0.21853
ltoes 49.5836 -0 0
rfemur -34.3956 -5.80568 24.1183
rtibia 40.8312 -0 0
rfoot -1.07071 -16.3611 -0.062878
rtoes 43.8738 -0 0
lowerback 6.30811 -3.98059 -7.2794
upperback 4.26583 -5.53189 -3.75058
thorax 1.3006 -2.80488 0.442474
lowerneck -2.17703 -10.6077 -5.25066
upperneck 2.41824 -14.3363 8.02023
head 2.42254 -7.04773 2.94611
lclavicle -3.46595e-14 -2.42328e-15 0
lhumerus -33.9093 -41.8754 88.2171
lradius 53.5509 -0 0
lwrist 16.8324 0 0
lhand 17.5931 13.267 0.0227284
lfingers 7.12502 0 0
lthumb 39.1647 33.895 0.0152766
rclavicle -3.46595e-14 -2.42328e-15 0
rhumerus -61.6241 40.8799 -93.3581
rradius 72.5207 -0 0
rwrist 10.7873 0 0
rhand -21.4844 -12.2107 -0.107611
rfingers 7.12502 0 0
rthumb 1.57306 -38.465 -0.0876197
315
root 8.78072 15.622 -23.4704 20.2286 69.4875 26.8747
lfemur -12.0109 12.2928 -17.7905
ltibia 52.5811 -0 0
lfoot -14.9995 -30.5497 -0.240304
ltoes 52.3221 -0 0
rfemur -37.0391 -6.56815 25.5472
rtibia 43.5598 -0 0
rfoot -0.958886 -16.5395 -0.0202907
rtoes 44.1618 -0 0
lowerback 6.7766 -4.12968 -7.68309
upperback 4.53621 -5.7538 -3.98389
thorax 1.33308 -2.9168 0.440969
lowerneck -2.38386 -11.2344 -5.37225
upperneck 2.3075 -15.1588 8.58783
head 2.48121 -7.46267 3.12049
lclavicle -3.15429e-14 -2.40435e-15 0
lhumerus -36.7298 -42.2077 93.5974
lradius 56.503 -0 0
lwrist 17.848 0 0
lhand 18.5068 13.9248 0.0310518
lfingers 7.12502 0 0
lthumb 41.3145 35.8168 0.0202655
rclavicle -3.15429e-14 -2.40435e-15 0
rhumerus -63.133 41.0088 -96.0108
rradius 75.9784 -0 0
rwrist 10.4224 0 0
rhand -22.0522 -13.0978 -0.124465
rfingers 7.12502 0 0
rthumb 2.36691 -40.8009 -0.0930706
